<?xml version="1.0" encoding="UTF-8"?>
<svg xmlns="http://www.w3.org/2000/svg" xmlns:xlink="http://www.w3.org/1999/xlink" width="94px" height="21px" viewBox="0 0 93 21" version="1.1">
<g id="surface1">
<path style=" stroke:none;fill-rule:nonzero;fill:rgb(100%,0%,0%);fill-opacity:1;" d="M 29.167969 3.339844 C 28.828125 2.0625 27.824219 1.050781 26.558594 0.707031 C 24.269531 0.078125 15.066406 0.078125 15.066406 0.078125 C 15.066406 0.078125 5.859375 0.09375 3.574219 0.726562 C 2.304688 1.070312 1.304688 2.082031 0.964844 3.359375 C 0.359375 5.671875 0.359375 10.5 0.359375 10.5 C 0.359375 10.5 0.359375 15.328125 0.984375 17.660156 C 1.324219 18.9375 2.324219 19.949219 3.589844 20.292969 C 5.878906 20.921875 15.085938 20.921875 15.085938 20.921875 C 15.085938 20.921875 24.289062 20.921875 26.578125 20.292969 C 27.84375 19.949219 28.84375 18.9375 29.183594 17.660156 C 29.808594 15.347656 29.808594 10.5 29.808594 10.5 C 29.808594 10.5 29.789062 5.671875 29.167969 3.339844 Z M 29.167969 3.339844 "/>
<path style=" stroke:none;fill-rule:nonzero;fill:rgb(100%,100%,100%);fill-opacity:1;" d="M 12.136719 14.96875 L 19.773438 10.5 L 12.136719 6.03125 Z M 12.136719 14.96875 "/>
<path style=" stroke:none;fill-rule:nonzero;fill:rgb(15.686275%,15.686275%,15.686275%);fill-opacity:1;" d="M 43.078125 19.035156 C 42.492188 18.632812 42.078125 18.023438 41.832031 17.183594 C 41.585938 16.34375 41.472656 15.234375 41.472656 13.839844 L 41.472656 11.949219 C 41.472656 10.558594 41.605469 9.410156 41.886719 8.570312 C 42.171875 7.710938 42.605469 7.101562 43.210938 6.71875 C 43.816406 6.339844 44.589844 6.128906 45.554688 6.128906 C 46.5 6.128906 47.273438 6.320312 47.84375 6.71875 C 48.410156 7.121094 48.84375 7.730469 49.109375 8.570312 C 49.375 9.410156 49.503906 10.539062 49.503906 11.933594 L 49.503906 13.820312 C 49.503906 15.214844 49.375 16.324219 49.109375 17.164062 C 48.84375 18.003906 48.429688 18.613281 47.84375 19.015625 C 47.257812 19.394531 46.460938 19.605469 45.480469 19.605469 C 44.457031 19.625 43.664062 19.414062 43.078125 19.035156 Z M 46.347656 16.992188 C 46.519531 16.570312 46.59375 15.863281 46.59375 14.910156 L 46.59375 10.84375 C 46.59375 9.90625 46.519531 9.222656 46.347656 8.800781 C 46.179688 8.363281 45.894531 8.152344 45.5 8.152344 C 45.101562 8.152344 44.835938 8.363281 44.667969 8.800781 C 44.496094 9.238281 44.421875 9.90625 44.421875 10.84375 L 44.421875 14.910156 C 44.421875 15.863281 44.496094 16.570312 44.648438 16.992188 C 44.796875 17.410156 45.082031 17.621094 45.5 17.621094 C 45.894531 17.621094 46.179688 17.410156 46.347656 16.992188 Z M 46.347656 16.992188 "/>
<path style=" stroke:none;fill-rule:nonzero;fill:rgb(15.686275%,15.686275%,15.686275%);fill-opacity:1;" d="M 87.78125 13.878906 L 87.78125 14.546875 C 87.78125 15.386719 87.800781 16.015625 87.859375 16.4375 C 87.914062 16.855469 88.007812 17.164062 88.160156 17.355469 C 88.3125 17.542969 88.558594 17.640625 88.878906 17.640625 C 89.3125 17.640625 89.617188 17.46875 89.769531 17.125 C 89.9375 16.78125 90.011719 16.207031 90.03125 15.425781 L 92.546875 15.578125 C 92.566406 15.691406 92.566406 15.84375 92.566406 16.035156 C 92.566406 17.238281 92.242188 18.136719 91.582031 18.726562 C 90.921875 19.320312 90.011719 19.625 88.824219 19.625 C 87.386719 19.625 86.382812 19.167969 85.816406 18.269531 C 85.25 17.371094 84.949219 15.960938 84.949219 14.070312 L 84.949219 11.761719 C 84.949219 9.8125 85.25 8.382812 85.835938 7.484375 C 86.441406 6.585938 87.460938 6.128906 88.898438 6.128906 C 89.898438 6.128906 90.65625 6.320312 91.183594 6.683594 C 91.714844 7.042969 92.09375 7.617188 92.320312 8.398438 C 92.546875 9.183594 92.640625 10.25 92.640625 11.625 L 92.640625 13.859375 L 87.78125 13.859375 Z M 88.160156 8.382812 C 88.007812 8.570312 87.914062 8.859375 87.859375 9.277344 C 87.800781 9.699219 87.78125 10.328125 87.78125 11.1875 L 87.78125 12.121094 L 89.898438 12.121094 L 89.898438 11.1875 C 89.898438 10.347656 89.882812 9.71875 89.824219 9.277344 C 89.769531 8.839844 89.671875 8.535156 89.523438 8.363281 C 89.371094 8.191406 89.144531 8.09375 88.839844 8.09375 C 88.519531 8.113281 88.292969 8.210938 88.160156 8.382812 Z M 88.160156 8.382812 "/>
<path style=" stroke:none;fill-rule:nonzero;fill:rgb(15.686275%,15.686275%,15.686275%);fill-opacity:1;" d="M 36.007812 13.632812 L 32.703125 1.566406 L 35.59375 1.566406 L 36.746094 7.027344 C 37.046875 8.382812 37.257812 9.527344 37.40625 10.460938 L 37.484375 10.460938 C 37.578125 9.773438 37.804688 8.648438 38.144531 7.042969 L 39.335938 1.566406 L 42.226562 1.566406 L 38.882812 13.613281 L 38.882812 19.394531 L 36.027344 19.394531 L 36.027344 13.632812 Z M 36.007812 13.632812 "/>
<path style=" stroke:none;fill-rule:nonzero;fill:rgb(15.686275%,15.686275%,15.686275%);fill-opacity:1;" d="M 58.882812 6.375 L 58.882812 19.414062 L 56.613281 19.414062 L 56.367188 17.8125 L 56.308594 17.8125 C 55.6875 19.015625 54.761719 19.625 53.53125 19.625 C 52.679688 19.625 52.039062 19.339844 51.640625 18.765625 C 51.226562 18.195312 51.035156 17.316406 51.035156 16.113281 L 51.035156 6.375 L 53.949219 6.375 L 53.949219 15.941406 C 53.949219 16.511719 54.003906 16.933594 54.136719 17.183594 C 54.269531 17.429688 54.476562 17.542969 54.761719 17.542969 C 55.007812 17.542969 55.25 17.46875 55.480469 17.316406 C 55.707031 17.164062 55.875 16.953125 55.988281 16.722656 L 55.988281 6.375 Z M 58.882812 6.375 "/>
<path style=" stroke:none;fill-rule:nonzero;fill:rgb(15.686275%,15.686275%,15.686275%);fill-opacity:1;" d="M 73.796875 6.375 L 73.796875 19.414062 L 71.527344 19.414062 L 71.28125 17.8125 L 71.222656 17.8125 C 70.601562 19.015625 69.675781 19.625 68.445312 19.625 C 67.59375 19.625 66.953125 19.339844 66.554688 18.765625 C 66.140625 18.195312 65.949219 17.316406 65.949219 16.113281 L 65.949219 6.375 L 68.863281 6.375 L 68.863281 15.941406 C 68.863281 16.511719 68.917969 16.933594 69.050781 17.183594 C 69.183594 17.429688 69.390625 17.542969 69.675781 17.542969 C 69.921875 17.542969 70.164062 17.46875 70.394531 17.316406 C 70.621094 17.164062 70.789062 16.953125 70.902344 16.722656 L 70.902344 6.375 Z M 73.796875 6.375 "/>
<path style=" stroke:none;fill-rule:nonzero;fill:rgb(15.686275%,15.686275%,15.686275%);fill-opacity:1;" d="M 66.78125 3.933594 L 63.890625 3.933594 L 63.890625 19.414062 L 61.054688 19.414062 L 61.054688 3.933594 L 58.164062 3.933594 L 58.164062 1.566406 L 66.761719 1.566406 L 66.761719 3.933594 Z M 66.78125 3.933594 "/>
<path style=" stroke:none;fill-rule:nonzero;fill:rgb(15.686275%,15.686275%,15.686275%);fill-opacity:1;" d="M 83.398438 8.457031 C 83.226562 7.636719 82.945312 7.042969 82.546875 6.664062 C 82.148438 6.300781 81.621094 6.109375 80.921875 6.109375 C 80.390625 6.109375 79.882812 6.261719 79.429688 6.566406 C 78.957031 6.871094 78.617188 7.273438 78.351562 7.769531 L 78.332031 7.769531 L 78.332031 0.898438 L 75.535156 0.898438 L 75.535156 19.394531 L 77.933594 19.394531 L 78.238281 18.15625 L 78.292969 18.15625 C 78.519531 18.59375 78.859375 18.9375 79.296875 19.207031 C 79.75 19.453125 80.242188 19.585938 80.789062 19.585938 C 81.773438 19.585938 82.492188 19.128906 82.960938 18.210938 C 83.417969 17.296875 83.664062 15.863281 83.664062 13.9375 L 83.664062 11.875 C 83.664062 10.421875 83.566406 9.277344 83.398438 8.457031 Z M 80.730469 13.785156 C 80.730469 14.738281 80.695312 15.484375 80.617188 16.015625 C 80.542969 16.550781 80.410156 16.933594 80.222656 17.164062 C 80.03125 17.390625 79.789062 17.507812 79.484375 17.507812 C 79.238281 17.507812 79.03125 17.449219 78.824219 17.335938 C 78.617188 17.21875 78.464844 17.046875 78.332031 16.820312 L 78.332031 9.410156 C 78.425781 9.050781 78.597656 8.761719 78.84375 8.535156 C 79.085938 8.304688 79.332031 8.191406 79.617188 8.191406 C 79.917969 8.191406 80.144531 8.304688 80.296875 8.535156 C 80.46875 8.761719 80.5625 9.164062 80.636719 9.71875 C 80.695312 10.269531 80.730469 11.054688 80.730469 12.085938 Z M 80.730469 13.785156 "/>
</g>
</svg>
